REM MD5 b37200537dba4da99100043ff5006452
FILE "Kimagure My Baby - Musume no Sugoroku Seichouki (Japan).bin" BINARY
  TRACK 01 MODE2/2352
    INDEX 01 00:00:00
  TRACK 02 AUDIO
    INDEX 00 64:14:74
    INDEX 01 64:19:74
  TRACK 03 AUDIO
    INDEX 00 67:01:74
    INDEX 01 67:03:74
REM LEADOUT 68:27:46
